# AST/ASF file generated using VICON BodyLanguage
# -----------------------------------------------
:version 1.10
:name VICON
:units
  mass 1.0
  length 0.45
  angle deg
:documentation
   .ast/.asf automatically generated from VICON data using
   VICON BodyBuilder and BodyLanguage model FoxedUp or BRILLIANT.MOD
:root
   order TX TY TZ RX RY RZ
   axis XYZ
   position 0 0 0  
   orientation 0 0 0 
:bonedata
  begin
     id 1 
     name lhipjoint
     direction 0.630305 -0.712092 0.309259 
     length 2.29033 
     axis 0 0 0  XYZ
  end
  begin
     id 2 
     name lfemur
     direction 0.34202 -0.939693 0  
     length 6.43538  
     axis 0 0 20  XYZ
    dof rx ry rz
    limits (-160.0 20.0)
           (-70.0 70.0)
           (-60.0 70.0)
  end
  begin
     id 3 
     name ltibia
     direction 0.34202 -0.939693 0   
     length 7.43097   
     axis 0 0 20   XYZ
    dof rx
    limits (-10.0 170.0)
  end
  begin
     id 4 
     name lfoot
     direction 0.0334653 -0.0919451 0.995202   
     length 1.78438   
     axis -90 7.62852e-016 20   XYZ
    dof rx rz
    limits (-45.0 90.0)
           (-70.0 20.0)
  end
  begin
     id 5 
     name ltoes
     direction 1.53535e-011 -4.21933e-011 1   
     length 0.90832   
     axis -90 7.62852e-016 20   XYZ
    dof rx
    limits (-90.0 20.0)
  end
  begin
     id 6 
     name rhipjoint
     direction -0.682059 -0.67077 0.291312   
     length 2.43143  
     axis 0 0 0  XYZ 
  end
  begin
     id 7 
     name rfemur
     direction -0.34202 -0.939693 0   
     length 6.63488   
     axis 0 0 -20   XYZ
    dof rx ry rz
    limits (-160.0 20.0)
           (-70.0 70.0)
           (-70.0 60.0)
  end
  begin
     id 8 
     name rtibia
     direction -0.34202 -0.939693 0   
     length 6.86532   
     axis 0 0 -20   XYZ
    dof rx
    limits (-10.0 170.0)
 end
 begin
     id 9 
     name rfoot
     direction -0.105199 -0.289033 0.951521   
     length 1.77126  
     axis -90 -7.62852e-016 -20   XYZ
    dof rx rz
    limits (-45.0 90.0)
           (-20.0 70.0)
  end
  begin
     id 10 
     name rtoes
     direction -1.53551e-011 -4.21978e-011 1   
     length 0.889273   
     axis -90 -7.62852e-016 -20   XYZ
    dof rx
    limits (-90.0 20.0)
  end
  begin
     id 11 
     name lowerback
     direction -0.0514305 0.998089 0.034245   
     length 2.02077   
     axis 0 0 0   XYZ
    dof rx ry rz
    limits (-20.0 45.0)
           (-30.0 30.0)
           (-30.0 30.0)
  end
  begin
     id 12 
     name upperback
     direction 0.0203189 0.999449 -0.0262315   
     length 2.01413   
     axis 0 0 0   XYZ
    dof rx ry rz
    limits (-20.0 45.0)
           (-30.0 30.0)
           (-30.0 30.0)
  end
  begin
     id 13 
     name thorax
     direction 0.0452736 0.998142 -0.0407729   
     length 2.02986   
     axis 0 0 0   XYZ
    dof rx ry rz
    limits (-20.0 45.0)
           (-30.0 30.0)
           (-30.0 30.0)
  end
  begin
     id 14 
     name lowerneck
     direction -0.0180464 0.999645 -0.0195774   
     length 1.59034   
     axis 0 0 0   XYZ
    dof rx ry rz
    limits (-20.0 45.0)
           (-30.0 30.0)
           (-30.0 30.0)
  end
  begin
     id 15 
     name upperneck
     direction 0.0732272 0.979935 -0.18538   
     length 1.57486   
     axis 0 0 0   XYZ
    dof rx ry rz
    limits (-20.0 45.0)
           (-30.0 30.0)
           (-30.0 30.0)
  end
  begin
     id 16
     name head
     direction 0.0252963 0.997909 -0.059472  
     length 1.60334  
     axis 0 0 0   XYZ
    dof rx ry rz
    limits (-20.0 45.0)
           (-30.0 30.0)
           (-30.0 30.0)
  end
  begin
     id 17 
     name lclavicle
     direction 0.943819 0.330449 0.00315172  
     length 3.50322  
     axis 0 0 0   XYZ
    dof ry rz
    limits (-20.0 10.0)
           (0.0 20.0)
  end
  begin
     id 18 
     name lhumerus
     direction 1 -4.48949e-011 2.22502e-028   
     length 4.63208   
     axis 180 -30 -90   XYZ
    dof rx ry rz
    limits (-60.0 90.0)
           (-90.0 90.0)
           (-90.0 90.0)
  end
  begin
     id 19
     name lradius
     direction 1 -4.48967e-011 -4.10197e-027   
     length 3.41924   
     axis 180 -30 -90   XYZ
    dof rx
    limits (-10.0 170.0)
  end
  begin
     id 20
     name lwrist
     direction 1 -4.48987e-011 -1.24264e-027   
     length 1.70962   
     axis 2.50585e-015 90 90   XYZ
    dof ry
    limits (-180.0 0.0)
 end
  begin
     id 21 
     name lhand
     direction 1 -4.48983e-011 -2.48528e-027   
     length 0.62537   
     axis 1.58582e-015 90 90   XYZ
    dof rx rz
    limits (-90.0 90.0)
           (-45.0 45.0)
  end
  begin
     id 22 
     name lfingers
     direction 1 -4.48896e-011 -4.97056e-027   
     length 0.50419   
     axis 3.17164e-015 90 90   XYZ
    dof rx
    limits (0.0 90.0)
  end
  begin
     id 23
     name lthumb
     direction 0.707107 -6.34803e-011 0.707107   
     length 0.723919   
     axis -90 45 2.85299e-015   XYZ
    dof rx rz
    limits (-45.0 45.0)
           (-45.0 45.0)
  end
  begin
     id 24 
     name rclavicle
     direction -0.964499 0.260664 -0.0423695   
     length 3.91997  
     axis 0 0 0   XYZ 
    dof ry rz
    limits (-10.0 20.0)
           (-20.0 0.0)
  end
  begin
     id 25 
     name rhumerus
     direction -1 -4.48957e-011 -1.98656e-027  
     length 4.4064   
     axis 180 30 90   XYZ
    dof rx ry rz
    limits (-90.0 60.0)
           (-90.0 90.0)
           (-90.0 90.0)
  end
  begin
     id 26 
     name rradius
     direction -1 -4.48968e-011 1.96972e-027   
     length 3.44675   
     axis 180 30 90   XYZ
    dof rx
    limits (-10.0 170.0)
  end
  begin
     id 27 
     name rwrist
     direction -1 -4.48974e-011 -1.24264e-027   
     length 1.72338   
     axis 2.50585e-015 -90 -90   XYZ
    dof ry
    limits (-180.0 0.0)
  end
  begin
     id 28
     name rhand
     direction -1 -4.48901e-011 -2.48528e-027   
     length 0.513674   
     axis 1.58582e-015 -90 -90   XYZ
    dof rx rz
    limits (-90.0 90.0)
           (-45.0 45.0)
  end
  begin
     id 29
     name rfingers
     direction -1 -4.48946e-011 -4.97056e-027   
     length 0.414137   
     axis 3.17164e-015 -90 -90   XYZ
    dof rx
    limits (0.0 90.0)
  end
  begin
     id 30
     name rthumb
     direction -0.707107 -6.34859e-011 0.707107   
     length 0.59462   
     axis -90 -45 -2.85299e-015   XYZ
    dof rx rz
    limits (-45.0 45.0)
           (-45.0 45.0)
  end
:hierarchy
  begin
    root lhipjoint rhipjoint lowerback
    lhipjoint lfemur
    lfemur ltibia
    ltibia lfoot
    lfoot ltoes
    rhipjoint rfemur
    rfemur rtibia
    rtibia rfoot
    rfoot rtoes
    lowerback upperback
    upperback thorax
    thorax lowerneck lclavicle rclavicle
    lowerneck upperneck
    upperneck head
    lclavicle lhumerus
    lhumerus lradius
    lradius lwrist
    lwrist lhand lthumb
    lhand lfingers
    rclavicle rhumerus
    rhumerus rradius
    rradius rwrist
    rwrist rhand rthumb
    rhand rfingers
  end

#!OML:ASF E:\inclinewalkrobotboard\Project 1\Capture day 1\Session 1\subject1.ASF
:FULLY-SPECIFIED
:DEGREES
111
root 8.88601 16.2286 16.5501 -159.599 10.5932 -177.801
lowerback -2.98165 -1.91798 -3.79123
upperback 0.913614 -2.44877 3.85445
thorax 2.95232 -1.3038 6.00234
lowerneck -5.6158 1.18782 -3.68181
upperneck 17.187 2.09319 3.78749
head 6.03994 1.31698 1.98011
rclavicle -1.13307e-014 3.89618e-014
rhumerus -53.6156 -34.801 -54.1065
rradius 24.1968
rwrist 19.8499
rhand -17.0393 -37.7445
rfingers 7.12502
rthumb 9.19741 -67.5239
lclavicle -1.13307e-014 3.89618e-014
lhumerus -20.0098 -19.53 98.4045
lradius 34.157
lwrist -15.2835
lhand -28.3602 -21.5756
lfingers 7.12502
lthumb -1.73378 8.39706
rfemur -34.0867 3.60646 22.1546
rtibia 31.6492
rfoot -19.642 -2.33521
rtoes -17.2061
lfemur -14.7672 -2.27039 -21.3224
ltibia 48.872
lfoot -5.7054 9.40671
ltoes -59.2334
112
root 8.95065 16.2077 16.3282 -159.101 10.6478 -177.674
lowerback -3.1522 -1.9658 -3.64374
upperback 0.790587 -2.51403 3.83083
thorax 2.92141 -1.33014 5.88513
lowerneck -5.9671 1.40188 -3.32771
upperneck 17.498 2.44086 3.29765
head 6.19824 1.47342 1.79932
rclavicle 4.4329e-014 9.93923e-016
rhumerus -51.9213 -33.5331 -56.0738
rradius 24.8086
rwrist 19.1063
rhand -17.1025 -38.0529
rfingers 7.12502
rthumb 9.13644 -67.835
lclavicle 4.4329e-014 9.93923e-016
lhumerus -20.0647 -18.7886 97.6171
lradius 34.2833
lwrist -15.5546
lhand -28.7415 -21.9988
lfingers 7.12502
lthumb -2.10203 7.97059
rfemur -34.0314 3.66902 22.4185
rtibia 32.3851
rfoot -20.6053 -2.21907
rtoes -16.7349
lfemur -17.8487 -1.84559 -21.143
ltibia 53.114
lfoot -7.27505 9.47727
ltoes -58.6314
113
root 9.01106 16.1971 16.0559 -159.915 11.5519 -177.318
lowerback -2.60919 -1.68701 -3.50452
upperback 1.21974 -2.15658 3.73415
thorax 3.00387 -1.15802 5.73569
lowerneck -5.8088 1.55352 -3.27542
upperneck 17.3205 2.66459 3.09137
head 6.11109 1.56597 1.73428
rclavicle 6.06293e-015 -1.45113e-014
rhumerus -50.1203 -32.3926 -57.841
rradius 25.1973
rwrist 18.7302
rhand -17.5719 -38.0157
rfingers 7.12502
rthumb 8.68346 -67.8171
lclavicle 6.06293e-015 -1.45113e-014
lhumerus -19.9081 -17.8193 96.7457
lradius 34.0976
lwrist -15.7123
lhand -29.3242 -23.4773
lfingers 7.12502
lthumb -2.66477 6.48576
rfemur -32.0677 4.26872 22.9004
rtibia 32.6797
rfoot -21.4762 -1.78669
rtoes -17.4754
lfemur -18.7375 -0.655553 -21.0382
ltibia 55.9608
lfoot -9.44003 9.68909
ltoes -58.4495
114
root 9.07136 16.1744 15.8332 -159.877 11.5094 -177.398
lowerback -2.35969 -1.72005 -3.65006
upperback 1.20605 -2.20237 3.69578
thorax 2.85905 -1.18082 5.78211
lowerneck -5.82905 1.62089 -3.17272
upperneck 17.4808 2.82164 2.71288
head 6.16875 1.62355 1.61131
rclavicle 1.88845e-014 -1.5704e-014
rhumerus -48.285 -31.5102 -59.2892
rradius 25.4185
rwrist 18.7824
rhand -17.8452 -37.8642
rfingers 7.12502
rthumb 8.41972 -67.6763
lclavicle 1.88845e-014 -1.5704e-014
lhumerus -19.6797 -16.8233 95.8379
lradius 33.7193
lwrist -15.6689
lhand -30.3474 -22.7429
lfingers 7.12502
lthumb -3.65296 7.20551
rfemur -31.53 4.25166 22.9704
rtibia 33.4306
rfoot -22.3412 -1.92385
rtoes -17.3157
lfemur -21.5166 -0.456522 -21.0124
ltibia 59.1579
lfoot -11.4595 10.5509
ltoes -58.8976
115
root 9.13196 16.1576 15.5984 -160.206 11.7769 -177.206
lowerback -1.85594 -1.54607 -3.60678
upperback 1.38873 -1.9786 3.63983
thorax 2.73165 -1.06685 5.72063
lowerneck -5.87428 1.6114 -3.30842
upperneck 17.5658 2.84996 2.61571
head 6.20289 1.62306 1.60732
rclavicle 3.85642e-014 -2.46493e-014
rhumerus -46.3408 -30.7047 -60.7629
rradius 25.6874
rwrist 18.7364
rhand -17.8886 -38.0262
rfingers 7.12502
rthumb 8.37786 -67.84
lclavicle 3.85642e-014 -2.46493e-014
lhumerus -19.6289 -15.8568 94.8074
lradius 33.4313
lwrist -15.7079
lhand -31.6023 -22.9698
lfingers 7.12502
lthumb -4.86468 6.95434
rfemur -30.4826 4.65779 23.3461
rtibia 34.1958
rfoot -23.2055 -2.07058
rtoes -16.5086
lfemur -23.6978 0.0312063 -20.7036
ltibia 61.4859
lfoot -13.7115 11.9162
ltoes -59.5336
116
root 9.1866 16.1352 15.3545 -160.538 12.0938 -177.05
lowerback -1.50763 -1.30255 -3.49363
upperback 1.61062 -1.65965 3.49675
thorax 2.71589 -0.906736 5.52566
lowerneck -5.9074 1.55046 -3.36848
upperneck 17.6292 2.79343 2.54744
head 6.23115 1.58864 1.59369
rclavicle -5.81445e-015 -4.96962e-015
rhumerus -44.4054 -29.7221 -62.4075
rradius 26.1707
rwrist 18.3006
rhand -17.8835 -38.2761
rfingers 7.12502
rthumb 8.3828 -68.0898
lclavicle -5.81445e-015 -4.96962e-015
lhumerus -19.8147 -14.9285 93.648
lradius 33.2485
lwrist -15.9978
lhand -32.2733 -23.045
lfingers 7.12502
lthumb -5.51259 6.86325
rfemur -29.4785 5.00934 23.6542
rtibia 35.0767
rfoot -24.1456 -2.32738
rtoes -17.3185
lfemur -25.8155 0.391231 -20.4163
ltibia 63.0447
lfoot -15.9662 13.2782
ltoes -58.9858
117
root 9.2371 16.1052 15.1125 -160.824 12.1943 -177.1
lowerback -1.20056 -1.12697 -3.52163
upperback 1.76275 -1.42872 3.33235
thorax 2.66771 -0.792103 5.38285
lowerneck -6.08177 1.56015 -3.23458
upperneck 17.9627 2.87134 2.26703
head 6.37248 1.62027 1.49701
rclavicle -1.14798e-014 6.95746e-015
rhumerus -42.4419 -28.5402 -64.0539
rradius 26.7319
rwrist 17.7143
rhand -18.1311 -38.2344
rfingers 7.12502
rthumb 8.1438 -68.0575
lclavicle -1.14798e-014 6.95746e-015
lhumerus -20.0234 -14.0913 92.474
lradius 32.8213
lwrist -16.2832
lhand -32.7191 -22.8344
lfingers 7.12502
lthumb -5.94301 7.0623
rfemur -28.5775 5.04747 23.762
rtibia 36.0024
rfoot -24.9045 -2.49801
rtoes -17.7063
lfemur -28.0751 0.419581 -20.2209
ltibia 63.9911
lfoot -18.3913 14.3736
ltoes -58.7848
118
root 9.28477 16.0669 14.876 -161.044 12.1678 -177.226
lowerback -0.922262 -0.973969 -3.61772
upperback 1.8955 -1.22618 3.18326
thorax 2.62231 -0.69276 5.29224
lowerneck -6.38125 1.58726 -3.02205
upperneck 18.3847 3.00609 1.7982
head 6.56819 1.66913 1.33467
rclavicle -3.89121e-014 -6.24184e-014
rhumerus -40.3277 -27.2062 -65.6742
rradius 27.2394
rwrist 17.0056
rhand -18.7413 -37.7619
rfingers 7.12502
rthumb 7.55485 -67.607
lclavicle -3.89121e-014 -6.24184e-014
lhumerus -20.0626 -13.1016 91.1788
lradius 32.0227
lwrist -16.5198
lhand -32.2994 -22.818
lfingers 7.12502
lthumb -5.53782 7.08966
rfemur -27.836 4.97141 23.7928
rtibia 37.0671
rfoot -25.5896 -2.64091
rtoes -16.9775
lfemur -30.6569 0.202151 -19.976
ltibia 64.8144
lfoot -20.741 15.0687
ltoes -57.8531
119
root 9.33035 16.0199 14.6414 -161.312 12.1495 -177.417
lowerback -0.566605 -0.774558 -3.77912
upperback 2.05502 -0.961601 2.99592
thorax 2.5547 -0.562944 5.20028
lowerneck -6.35624 1.43895 -3.24953
upperneck 18.4696 2.84614 1.80649
head 6.59228 1.58222 1.36516
rclavicle 2.06239e-014 -1.56046e-014
rhumerus -38.2819 -25.5827 -67.3323
rradius 28.0195
rwrist 15.9491
rhand -19.1345 -37.1298
rfingers 7.12502
rthumb 7.17532 -66.9882
lclavicle 2.06239e-014 -1.56046e-014
lhumerus -20.1616 -12.1842 89.7964
lradius 31.2225
lwrist -16.7964
lhand -30.9616 -21.7432
lfingers 7.12502
lthumb -4.2461 8.19421
rfemur -27.1127 4.83346 23.7568
rtibia 38.2116
rfoot -26.5373 -2.9986
rtoes -17.3452
lfemur -33.3595 -0.113805 -19.7077
ltibia 65.7968
lfoot -24.6547 13.1251
ltoes -53.8504
120
root 9.37101 15.9659 14.4049 -161.614 12.0609 -177.483
lowerback -0.131165 -0.552468 -3.79054
upperback 2.21075 -0.669108 2.8409
thorax 2.43339 -0.413212 5.05584
lowerneck -6.34452 1.34599 -3.49088
upperneck 18.4967 2.72752 1.98241
head 6.59614 1.52605 1.45356
rclavicle -2.08724e-015 2.93207e-014
rhumerus -36.3385 -23.5798 -68.9573
rradius 29.153
rwrist 14.5773
rhand -19.3193 -36.9742
rfingers 7.12502
rthumb 6.99689 -66.8386
lclavicle -2.08724e-015 2.93207e-014
lhumerus -20.3923 -11.0665 88.3883
lradius 30.4043
lwrist -17.2021
lhand -30.191 -21.297
lfingers 7.12502
lthumb -3.50196 8.65399
rfemur -26.3032 4.5541 23.8605
rtibia 39.2918
rfoot -27.4071 -3.23245
rtoes -18.5815
lfemur -36.0679 -0.574514 -19.1521
ltibia 65.633
lfoot -25.1699 14.7678
ltoes -56.2473
121
root 9.40387 15.907 14.1682 -161.922 12.0194 -177.315
lowerback 0.294829 -0.2764 -3.5231
upperback 2.44662 -0.300889 2.72285
thorax 2.39093 -0.220436 4.79001
lowerneck -6.33893 1.26681 -3.65088
upperneck 18.4752 2.636 2.02757
head 6.58842 1.47655 1.48778
rclavicle -1.94809e-014 2.68359e-015
rhumerus -34.1775 -21.3642 -70.5248
rradius 30.3284
rwrist 13.4074
rhand -19.779 -37.3278
rfingers 7.12502
rthumb 6.55316 -67.2064
lclavicle -1.94809e-014 2.68359e-015
lhumerus -20.6163 -9.75637 86.8958
lradius 29.598
lwrist -17.6682
lhand -31.0455 -21.6959
lfingers 7.12502
lthumb -4.32711 8.23985
rfemur -25.5075 4.30664 24.1601
rtibia 40.5048
rfoot -28.0325 -3.20447
rtoes -20.3456
lfemur -38.8203 -0.93559 -18.2852
ltibia 65.5446
lfoot -26.1302 15.3476
ltoes -56.4989
122
root 9.43153 15.8412 13.9311 -162.263 12.1464 -177.034
lowerback 0.770332 0.0657232 -3.168
upperback 2.71634 0.160028 2.60292
thorax 2.35087 0.02235 4.47054
lowerneck -6.44557 1.16073 -3.68839
upperneck 18.5807 2.53168 1.91503
head 6.64592 1.41747 1.4541
rclavicle 1.58531e-014 -2.03754e-014
rhumerus -31.8502 -19.0062 -71.9129
rradius 31.4301
rwrist 12.7864
rhand -20.1598 -37.7897
rfingers 7.12502
rthumb 6.18558 -67.6794
lclavicle 1.58531e-014 -2.03754e-014
lhumerus -20.922 -8.55853 85.2615
lradius 28.7992
lwrist -18.0031
lhand -31.4326 -21.9061
lfingers 7.12502
lthumb -4.70089 8.02172
rfemur -24.7792 4.22772 24.5007
rtibia 41.9948
rfoot -28.5692 -3.00038
rtoes -21.6899
lfemur -41.5557 -1.05235 -17.2301
ltibia 65.3877
lfoot -27.1879 15.6871
ltoes -56.4308
123
root 9.454 15.7688 13.6861 -162.731 12.4142 -176.799
lowerback 1.37478 0.44107 -2.90335
upperback 2.96905 0.667486 2.4601
thorax 2.22378 0.289997 4.1728
lowerneck -6.49203 1.07574 -3.6438
upperneck 18.6779 2.46135 1.72345
head 6.69135 1.3752 1.38291
rclavicle 3.47873e-015 2.88238e-015
rhumerus -29.5543 -16.4165 -73.0628
rradius 32.636
rwrist 12.148
rhand -20.0198 -37.7058
rfingers 7.12502
rthumb 6.32075 -67.5915
lclavicle 3.47873e-015 2.88238e-015
lhumerus -21.4525 -7.53835 83.5047
lradius 27.9696
lwrist -18.1728
lhand -30.5975 -21.7881
lfingers 7.12502
lthumb -3.89448 8.15607
rfemur -23.96 4.21287 24.7169
rtibia 43.5958
rfoot -28.9637 -2.761
rtoes -22.2216
lfemur -44.0823 -1.08406 -16.1533
ltibia 64.9798
lfoot -28.2503 16.0026
ltoes -56.6452
124
root 9.47096 15.6932 13.4352 -163.266 12.8678 -176.649
lowerback 2.02428 0.831653 -2.76315
upperback 3.27659 1.20082 2.27854
thorax 2.13246 0.568728 3.89848
lowerneck -6.52264 1.03978 -3.79154
upperneck 18.5748 2.42017 1.7522
head 6.66297 1.34621 1.41228
rclavicle 1.09332e-015 2.01766e-014
rhumerus -27.0414 -13.4901 -74.1418
rradius 33.9073
rwrist 10.762
rhand -20.1096 -37.798
rfingers 7.12502
rthumb 6.23402 -67.6862
lclavicle 1.09332e-015 2.01766e-014
lhumerus -22.0282 -6.55835 81.611
lradius 27.1129
lwrist -18.132
lhand -30.8096 -21.6508
lfingers 7.12502
lthumb -4.09931 8.28954
rfemur -22.9486 3.34538 24.6742
rtibia 44.7706
rfoot -28.8409 -2.11965
rtoes -24.2667
lfemur -46.4463 -1.00331 -15.102
ltibia 64.3917
lfoot -28.99 15.6771
ltoes -55.9931
125
root 9.48507 15.6139 13.1835 -163.688 13.4437 -176.386
lowerback 2.69341 1.23839 -2.57152
upperback 3.54831 1.75839 2.10547
thorax 1.999 0.862982 3.59505
lowerneck -6.63056 1.06265 -4.06223
upperneck 18.3927 2.42775 1.98439
head 6.61666 1.34468 1.52998
rclavicle -4.37326e-015 -2.27608e-014
rhumerus -24.2632 -10.5006 -75.0764
rradius 35.1633
rwrist 8.89635
rhand -20.5678 -38.4842
rfingers 7.12502
rthumb 5.79165 -68.385
lclavicle -4.37326e-015 -2.27608e-014
lhumerus -22.6837 -5.68616 79.5914
lradius 26.1834
lwrist -17.9502
lhand -31.3536 -21.6553
lfingers 7.12502
lthumb -4.62461 8.27417
rfemur -22.2085 3.17959 24.7218
rtibia 46.3524
rfoot -28.7906 -1.79243
rtoes -26.7262
lfemur -48.9029 -0.592215 -13.8511
ltibia 63.7714
lfoot -29.0632 15.3104
ltoes -54.883
